<?xml version="1.0" encoding="utf-8"?>
<!-- Generator: Adobe Illustrator 21.0.0, SVG Export Plug-In . SVG Version: 6.00 Build 0)  -->
<svg version="1.1" id="Layer_1" xmlns="http://www.w3.org/2000/svg" xmlns:xlink="http://www.w3.org/1999/xlink" x="0px" y="0px"
	 viewBox="0 0 90 90" style="enable-background:new 0 0 90 90;" xml:space="preserve">
<style type="text/css">
	.st0{fill:#FEFEFE;}
	.st1{filter:url(#Adobe_OpacityMaskFilter);}
	.st2{fill:#FFFFFF;}
	.st3{mask:url(#mask-2_1_);fill:#FEFEFE;}
	.st4{fill:none;stroke:#FFFFFF;}
</style>
<path id="Fill-5_4_" class="st0" d="M71.2,27.1c-3.6,0-6.6-3-6.6-6.6c0-3.6,3-6.6,6.6-6.6c3.6,0,6.6,3,6.6,6.6
	C77.8,24.1,74.8,27.1,71.2,27.1L71.2,27.1z M34.5,68.7c-1.1,1.1-2.9,1.1-4,0l-3.5-3.5c-0.5-0.5-1.2-0.5-1.7,0
	c-0.5,0.5-0.5,1.2,0,1.7l1.1,1.1l-4.1,4.1L21,70.8v0c0,0,0,0,0,0l-1.4-1.4l4.9-4.9l-0.1-0.1c0.5-0.5,0.5-1.2,0-1.7l-1.4-1.4
	c-0.5-0.5-0.8-1.2-0.8-2s0.3-1.5,0.8-2l4.1-4.1L35,61c0.2,0.2,0.5,0.4,0.8,0.4c0.3,0,0.6-0.1,0.9-0.4c0.5-0.5,0.5-1.2,0-1.7L35.5,58
	l8.2-8.2c0.5-0.5,0.5-1.2,0-1.7c-0.5-0.5-1.2-0.5-1.7,0l-8.2,8.2l-4.9-4.9l3-3l2.1,2.1c0.2,0.2,0.5,0.4,0.9,0.4
	c0.3,0,0.6-0.1,0.9-0.4c0.5-0.5,0.5-1.2,0-1.7l-2.1-2.1l3-3l3.4,3.4c0.2,0.2,0.5,0.4,0.9,0.4c0.3,0,0.6-0.1,0.9-0.4
	c0.5-0.5,0.5-1.2,0-1.7L38.4,42l3-3l2.1,2.1c0.2,0.2,0.5,0.4,0.9,0.4c0.3,0,0.6-0.1,0.9-0.4c0.5-0.5,0.5-1.2,0-1.7l-2.1-2.1l2.6-2.6
	l4.9,4.9L45.1,45c-0.5,0.5-0.5,1.2,0,1.7c0.2,0.2,0.5,0.4,0.9,0.4c0.3,0,0.6-0.1,0.9-0.4l5.5-5.5l4.9,4.9L40.4,62.9L39.5,62
	c-0.5-0.5-1.2-0.5-1.7,0c-0.5,0.5-0.5,1.2,0,1.7l0.9,0.9L34.5,68.7z M71.2,11.5c-5,0-9,4-9,9c0,2.1,0.7,4,1.9,5.5L52.3,37.8
	l-5.7-5.7l-0.4-0.4c-2.4-2.4-6.4-2.4-8.8,0c-0.5,0.5-0.5,1.2,0,1.7c0.5,0.5,1.2,0.5,1.7,0c1.3-1.3,3.4-1.5,4.9-0.4L21.4,55.6
	c-1,1-1.5,2.3-1.5,3.7c0,1.4,0.5,2.7,1.5,3.7l0.7,0.7l-4.9,4.9c-0.5,0.5-0.5,1.2,0,1.7l1.4,1.4l-9.9,9.9c-0.5,0.5-0.5,1.2,0,1.7
	c0.2,0.2,0.5,0.4,0.9,0.4c0.3,0,0.6-0.1,0.8-0.4l9.9-9.9l1.4,1.4c0.2,0.2,0.5,0.4,0.8,0.4c0.3,0,0.6-0.1,0.9-0.4l4.9-4.9l0.7,0.7
	c1,1,2.3,1.5,3.7,1.5c1.3,0,2.7-0.5,3.7-1.5l22.6-22.6c1.1,1.5,0.9,3.6-0.4,4.9c-0.5,0.5-0.4,1.2,0,1.7c0.2,0.2,0.5,0.3,0.8,0.3
	c0.3,0,0.6-0.1,0.9-0.4c2.4-2.4,2.4-6.4,0-8.8l-0.4-0.4c0,0,0,0,0,0L54,39.5l11.8-11.8c1.5,1.1,3.4,1.8,5.4,1.8c5,0,9-4,9-9
	C80.2,15.5,76.2,11.5,71.2,11.5L71.2,11.5z"/>
</svg>
