<?xml version="1.0" encoding="utf-8"?>
<!-- Generator: Adobe Illustrator 21.0.0, SVG Export Plug-In . SVG Version: 6.00 Build 0)  -->
<svg version="1.1" id="Layer_1" xmlns="http://www.w3.org/2000/svg" xmlns:xlink="http://www.w3.org/1999/xlink" x="0px" y="0px"
	 viewBox="0 0 90 90" style="enable-background:new 0 0 90 90;" xml:space="preserve">
<style type="text/css">
	.st0{fill:#FEFEFE;}
	.st1{filter:url(#Adobe_OpacityMaskFilter);}
	.st2{fill:#FFFFFF;}
	.st3{mask:url(#mask-2_1_);fill:#FEFEFE;}
	.st4{fill:none;stroke:#FFFFFF;}
</style>
<g id="Group-8" transform="translate(42.660178, 35.750290)">
	<path id="Fill-5_5_" class="st0" d="M24.7,5.4c-0.4,0.7-0.8,1.4-1.2,2.2C21.7,11,20.9,21.7,20.8,23c0,7.4-3.2,14.5-8.9,19.4
		c0,0-0.1,0.1-0.1,0.1c-0.4,0.4-0.9,0.7-1.5,1.2c-0.7,0-1.3-0.6-1.3-1.3V23c0-4.3-3.5-7.7-7.8-7.7c-4.3,0-7.8,3.5-7.8,7.7v19.4
		c0,0.7-0.6,1.3-1.3,1.3c-0.6-0.4-1-0.8-1.5-1.2c0,0-0.1-0.1-0.1-0.1c-5.6-4.9-8.9-12-8.9-19.5C-18.3,21.7-19.2,11-21,7.6
		c-0.4-0.7-0.8-1.5-1.2-2.1c-2.2-4-3.9-7.1-3.9-12.1c0-9.2,7.6-16.8,16.9-16.8c2.9,0,5.6,0.7,8.1,2.1c-4.2,3.6-6.8,8.8-6.8,14.7
		c0,0.7,0.6,1.3,1.3,1.3c0.7,0,1.3-0.6,1.3-1.3c0-5.9,3.1-11.1,7.8-14.1c2.7-1.8,5.9-2.7,9.1-2.7c9.3,0,16.9,7.5,16.9,16.8
		C28.6-1.7,26.9,1.4,24.7,5.4 M11.7-26c-3.6,0-7.1,1-10.1,2.8c0,0-0.1,0-0.1,0.1c0,0-0.1,0.1-0.1,0.1c-3.1-2-6.7-3-10.4-3
		c-10.8,0-19.5,8.7-19.5,19.4c0,5.6,2,9.1,4.2,13.3c0.4,0.7,0.8,1.4,1.1,2.1C-22,11.3-21.1,20-20.8,23c0,8.1,3.5,15.8,9.6,21.2
		c0,0,0,0,0,0c0,0,0.1,0.1,0.1,0.1c0.6,0.5,1.2,1,2,1.6c0.2,0.1,0.3,0.2,0.5,0.2c0.2,0,0.5,0.1,0.7,0.1c2.2,0,3.9-1.7,3.9-3.9V23
		c0-2.8,2.3-5.2,5.2-5.2c2.9,0,5.2,2.3,5.2,5.2v19.4c0,2.1,1.7,3.9,3.9,3.9c0.2,0,0.5,0,0.7-0.1c0.2,0,0.4-0.1,0.5-0.2
		c0.8-0.6,1.4-1.1,2-1.6c0,0,0.1-0.1,0.1-0.1c0,0,0,0,0,0c6.1-5.4,9.6-13.1,9.6-21.1c0.2-3.1,1.1-11.9,2.5-14.4
		C26.2,8,26.6,7.3,27,6.6c2.3-4.1,4.2-7.7,4.2-13.3C31.2-17.3,22.4-26,11.7-26"/>
	<path id="Fill-7_3_" class="st0" d="M18.2-9.2h-3.9v-3.9c0-0.7-0.6-1.3-1.3-1.3c-0.7,0-1.3,0.6-1.3,1.3v3.9H7.8
		C7-9.2,6.5-8.7,6.5-7.9S7-6.6,7.8-6.6h3.9v3.9c0,0.7,0.6,1.3,1.3,1.3c0.7,0,1.3-0.6,1.3-1.3v-3.9h3.9c0.7,0,1.3-0.6,1.3-1.3
		S18.9-9.2,18.2-9.2"/>
	<path id="Fill-9_2_" class="st0" d="M11.7-20.8c-0.7,0-1.3,0.6-1.3,1.3c0,0.7,0.6,1.3,1.3,1.3c6.5,0,11.7,5.2,11.7,11.6
		c0,0.7,0.6,1.3,1.3,1.3c0.7,0,1.3-0.6,1.3-1.3C26-14.5,19.6-20.8,11.7-20.8"/>
</g>
</svg>
