<?xml version="1.0" encoding="utf-8"?>
<!-- Generator: Adobe Illustrator 21.0.0, SVG Export Plug-In . SVG Version: 6.00 Build 0)  -->
<svg version="1.1" id="Layer_1" xmlns="http://www.w3.org/2000/svg" xmlns:xlink="http://www.w3.org/1999/xlink" x="0px" y="0px"
	 viewBox="0 0 90 90" style="enable-background:new 0 0 90 90;" xml:space="preserve">
<style type="text/css">
	.st0{fill:#FEFEFE;}
	.st1{filter:url(#Adobe_OpacityMaskFilter);}
	.st2{fill:#FFFFFF;}
	.st3{mask:url(#mask-2_1_);fill:#FEFEFE;}
	.st4{fill:none;stroke:#FFFFFF;}
</style>
<g id="Group-6" transform="translate(35.847672, 42.801652)">
	<path id="Fill-5_3_" class="st0" d="M-3-10.1c-0.6,0-1.2-0.9-1.2-2.1v-3.5c0-1,0.4-1.9,0.7-2.2c8.2,4.8,15.4,4.8,24.1,0
		c0.3,0.3,0.7,1.2,0.7,2.2v3.5c0,1.2-0.6,2.1-1.2,2.1H-3z M-15.8-22.3h48.7v48H9.1c0.4-0.2,0.7-0.6,0.7-1.1v-3.9h6
		c0.7,0,1.2-0.6,1.2-1.2c0-0.7-0.6-1.2-1.2-1.2h-6v-3.1H20c0.7,0,1.2-0.6,1.2-1.2c0-0.7-0.6-1.2-1.2-1.2H9.8V9.6h16.9
		c0.7,0,1.2-0.6,1.2-1.2s-0.6-1.2-1.2-1.2H9.8V4H20c0.7,0,1.2-0.6,1.2-1.2c0-0.7-0.6-1.2-1.2-1.2H9.8v-3.1h6c0.7,0,1.2-0.6,1.2-1.2
		c0-0.7-0.6-1.2-1.2-1.2h-6v-3.5h10.4c2,0,3.7-2.1,3.7-4.6v-3.5c0-1.6-0.7-3.6-2.1-4.4c-0.7-0.4-1.5-0.4-2.2,0
		c-8.1,4.5-14.4,4.5-21.9,0c-0.7-0.4-1.5-0.4-2.2,0c-1.4,0.8-2.1,2.9-2.1,4.4v3.5c0,2.5,1.7,4.6,3.7,4.6H7.3v3.5h-6
		c-0.7,0-1.2,0.6-1.2,1.2c0,0.7,0.6,1.2,1.2,1.2h6v3.1H-2.9c-0.7,0-1.2,0.6-1.2,1.2C-4.1,3.4-3.6,4-2.9,4H7.3v3.1H-9.5
		c-0.7,0-1.2,0.6-1.2,1.2s0.6,1.2,1.2,1.2H7.3v3.1H-2.9c-0.7,0-1.2,0.6-1.2,1.2c0,0.7,0.6,1.2,1.2,1.2H7.3v3.1h-6
		c-0.7,0-1.2,0.6-1.2,1.2c0,0.7,0.6,1.2,1.2,1.2h6v3.9c0,0.5,0.3,0.9,0.7,1.1h-23.8V-22.3z M40.4,25.7h-5v-49.3
		c0-0.7-0.6-1.2-1.2-1.2H-17c-0.7,0-1.2,0.6-1.2,1.2v49.3h-5c-0.7,0-1.2,0.6-1.2,1.2s0.6,1.2,1.2,1.2h6.2h0h51.2h0h6.2
		c0.7,0,1.2-0.6,1.2-1.2S41.1,25.7,40.4,25.7L40.4,25.7z"/>
	<path id="Fill-7_2_" class="st0" d="M27.9,30.4h-38.7c-0.7,0-1.2,0.6-1.2,1.2c0,0.7,0.6,1.2,1.2,1.2h38.7c0.7,0,1.2-0.6,1.2-1.2
		C29.2,30.9,28.6,30.4,27.9,30.4"/>
</g>
</svg>
