<?xml version="1.0" encoding="utf-8"?>
<!-- Generator: Adobe Illustrator 21.0.0, SVG Export Plug-In . SVG Version: 6.00 Build 0)  -->
<svg version="1.1" id="Layer_1" xmlns="http://www.w3.org/2000/svg" xmlns:xlink="http://www.w3.org/1999/xlink" x="0px" y="0px"
	 viewBox="0 0 32 32" style="enable-background:new 0 0 32 32;" xml:space="preserve">
<style type="text/css">
	.st0{clip-path:url(#SVGID_2_);}
	.st1{fill:none;}
	.st2{clip-path:url(#SVGID_4_);}
	.st3{fill:#1A428A;}
</style>
<g>
	<g>
		<defs>
			<rect id="SVGID_1_" x="2.3" y="2.1" width="28.1" height="29.1"/>
		</defs>
		<clipPath id="SVGID_2_">
			<use xlink:href="#SVGID_1_"  style="overflow:visible;"/>
		</clipPath>
		<g id="events" class="st0">
			<g id="Events-2" transform="translate(1.5 1.094)">
				<g id="Group_6" transform="translate(0 0)">
					<path id="Clip_2-2" class="st1" d="M0.8,1h28.1v29.1H0.8V1z"/>
					<g id="Group_3">
						<defs>
							<rect id="SVGID_3_" x="0.8" y="1" width="28.1" height="29.1"/>
						</defs>
						<clipPath id="SVGID_4_">
							<use xlink:href="#SVGID_3_"  style="overflow:visible;"/>
						</clipPath>
						<g id="Group_3-2" class="st2">
							<path id="Fill_1" class="st3" d="M26.1,30.1H3.6C2,30,0.8,28.6,0.8,27V7c0-0.1,0-0.1,0-0.2c0-1.5,1.3-2.7,2.7-2.7h2.1V2.4
								C5.8,1.6,6.5,0.9,7.3,1c0,0,0,0,0,0h2c0.7-0.1,1.4,0.5,1.5,1.2c0,0.1,0,0.1,0,0.2v1.7h8V2.4c0-0.7,0.6-1.4,1.3-1.4
								c0.1,0,0.1,0,0.2,0h2c0.4,0,0.8,0.1,1.1,0.4C23.9,1.6,24,2,24,2.4v1.7h2.1h0.1C27.8,4.2,29,5.5,28.9,7v20
								C29,28.6,27.7,30,26.1,30.1z M2.6,12.4V27c0,0.7,0.4,1.4,1.1,1.4h22.5c0.7,0,1.1-0.7,1.1-1.4V12.4H2.6z M3.6,5.8
								C3.5,5.8,3.5,5.8,3.6,5.8c-0.6,0.1-1.1,0.5-1,1.1v3.8h24.6V6.9c0-0.1,0-0.1,0-0.2c0-0.5-0.5-0.9-1-0.9h-0.1H24v0.6
								C24,7.3,23.3,8,22.4,7.9h-2.1c-0.8,0-1.4-0.7-1.4-1.5c0,0,0,0,0,0V5.8h-8v0.6c0,0,0,0.1,0,0.1c0,0.8-0.7,1.4-1.4,1.4H7.3
								C6.5,8,5.7,7.3,5.7,6.4V5.8L3.6,5.8L3.6,5.8z M20.5,2.7v3.5h1.8V2.7H20.5z M7.5,2.7v3.5h1.6V2.7H7.5z"/>
						</g>
					</g>
					<path id="Fill_4" class="st3" d="M9.8,24.5c-0.7,0-1.2-0.5-1.2-1.2c0-0.1,0-0.1,0-0.2l0.9-4.8l-3.5-3.4
						c-0.3-0.3-0.4-0.8-0.3-1.3l0,0c0.2-0.4,0.5-0.7,1-0.8l4.8-0.7l2.2-4.4C13.8,7.3,14.2,7,14.6,7c0.2,0,0.4,0,0.5,0.1
						c0.2,0.1,0.4,0.3,0.6,0.6l2.2,4.4l4.8,0.7c0.4,0.1,0.8,0.4,1,0.8l0,0c0.1,0.4,0,0.9-0.3,1.3l0,0l-3.5,3.4l0.9,4.8
						c0.1,0.5-0.1,0.9-0.5,1.2c-0.2,0.2-0.5,0.2-0.7,0.2h0l0,0L19,24.4l-4.4-2.3l-4.3,2.3C10.1,24.5,9.9,24.5,9.8,24.5z M14.6,19.5
						L14.6,19.5l0.5,0.1l2.7,1.5l-0.5-3c-0.1-0.4,0.1-0.8,0.4-1.1l2.2-2.1l-3-0.4c-0.4-0.1-0.7-0.3-0.9-0.7L14.6,11l-1.4,2.7
						c-0.2,0.4-0.5,0.6-0.9,0.7l-3,0.4l2.2,2.1c0.3,0.3,0.4,0.7,0.4,1.1l-0.5,3l2.7-1.5L14.6,19.5L14.6,19.5z"/>
				</g>
			</g>
		</g>
	</g>
</g>
</svg>
