<?xml version="1.0" encoding="utf-8"?>
<!-- Generator: Adobe Illustrator 21.0.0, SVG Export Plug-In . SVG Version: 6.00 Build 0)  -->
<svg version="1.1" id="Layer_1" xmlns="http://www.w3.org/2000/svg" xmlns:xlink="http://www.w3.org/1999/xlink" x="0px" y="0px"
	 viewBox="0 0 90 90" style="enable-background:new 0 0 90 90;" xml:space="preserve">
<style type="text/css">
	.st0{fill:#FEFEFE;}
	.st1{filter:url(#Adobe_OpacityMaskFilter);}
	.st2{fill:#FFFFFF;}
	.st3{mask:url(#mask-2_1_);fill:#FEFEFE;}
	.st4{fill:none;stroke:#FFFFFF;}
	.st5{fill:none;stroke:#FFFFFF;stroke-miterlimit:10;}
</style>
<g id="Group-12" transform="translate(30.918256, 32.414774)">
	<path id="Fill-5_7_" class="st0" d="M-16.5,32.4c0.4,0.6,1,1.5,2.1,1.5c1.3,0,1.9-1,2.2-1.6c0.1-0.2,0.2-0.3,0.3-0.5
		c0.1,0.2,0.2,0.3,0.3,0.5c0.4,0.6,0.9,1.6,2.2,1.6c1.3,0,1.9-1,2.2-1.6c0.1-0.2,0.2-0.3,0.3-0.5c0.1,0.2,0.2,0.3,0.3,0.5
		c0.4,0.6,0.9,1.6,2.2,1.6s1.9-1,2.2-1.6c0.1-0.1,0.2-0.3,0.3-0.4l5.5,14.6h-25.6L-16.5,32.4z M-11.4,18.8V2.9h4.7v15.9l4.1,10.9
		c-0.6,0.3-1.1,0.8-1.4,1.4c-0.1,0.2-0.2,0.3-0.3,0.5c-0.1-0.2-0.2-0.3-0.3-0.5c-0.4-0.6-0.9-1.6-2.2-1.6c-1.3,0-1.9,1-2.2,1.6
		c-0.1,0.2-0.2,0.3-0.3,0.5c-0.1-0.2-0.2-0.3-0.3-0.5c-0.4-0.6-0.9-1.6-2.2-1.6s-1.9,1-2.2,1.6c-0.1,0.2-0.2,0.3-0.3,0.5
		c-0.1-0.2-0.2-0.3-0.3-0.5c-0.2-0.4-0.5-0.8-0.9-1.2L-11.4,18.8z M-21.8,48.6H3.7c1.2,0,2.2-1,2.2-2.2c0-0.3,0-0.5-0.1-0.8
		L-4.5,18.4V2.9h1.7c0.6,0,1.1-0.5,1.1-1.1c0-0.6-0.5-1.1-1.1-1.1h-12.5c-0.6,0-1.1,0.5-1.1,1.1c0,0.6,0.5,1.1,1.1,1.1h1.7v15.5
		l-10.3,27.2c-0.4,1.1,0.1,2.4,1.3,2.8C-22.3,48.5-22.1,48.6-21.8,48.6L-21.8,48.6z"/>
	<path id="Fill-7_6_" class="st0" d="M40.1,25.2c0,1.2-1,2.2-2.2,2.2s-2.2-1-2.2-2.2V2.9h4.3V25.2z M32,44.2c0.4,0,0.8,0.2,1,0.6
		l0.8,1.6h-22l0.8-1.6c0.2-0.4,0.6-0.6,1-0.6H32z M16.2,14.9h2.2v10.3c0,2.4,1.9,4.3,4.3,4.3s4.3-1.9,4.3-4.3V14.9h2.2v27.2h-13
		V14.9z M20.6,2.9h4.3v22.3c0,1.2-1,2.2-2.2,2.2c-1.2,0-2.2-1-2.2-2.2V2.9z M9.7,25.2c0,1.2-1,2.2-2.2,2.2c-1.2,0-2.2-1-2.2-2.2V2.9
		h4.3V25.2z M44.5,12.7h-2.2V2.9h0.5c0.6,0,1.1-0.5,1.1-1.1c0-0.6-0.5-1.1-1.1-1.1h-9.8c-0.6,0-1.1,0.5-1.1,1.1
		c0,0.6,0.5,1.1,1.1,1.1h0.5v9.8h-2.2V8.9c0-0.6-0.5-1.1-1.1-1.1c-0.6,0-1.1,0.5-1.1,1.1v3.8h-2.2V2.9h0.5c0.6,0,1.1-0.5,1.1-1.1
		c0-0.6-0.5-1.1-1.1-1.1h-9.8c-0.6,0-1.1,0.5-1.1,1.1c0,0.6,0.5,1.1,1.1,1.1h0.5v9.8h-2.2V8.9c0-0.6-0.5-1.1-1.1-1.1
		c-0.6,0-1.1,0.5-1.1,1.1v3.8h-2.2V2.9H13c0.6,0,1.1-0.5,1.1-1.1c0-0.6-0.5-1.1-1.1-1.1H2.1C1.5,0.7,1,1.2,1,1.8
		c0,0.6,0.5,1.1,1.1,1.1h1.1v9.8H1v-2.2c0-0.6-0.5-1.1-1.1-1.1c-0.6,0-1.1,0.5-1.1,1.1v2.2h-0.5c-0.6,0-1.1,0.5-1.1,1.1
		c0,0.6,0.5,1.1,1.1,1.1h0.5v2.2c0,0.6,0.5,1.1,1.1,1.1c0.6,0,1.1-0.5,1.1-1.1v-2.2h2.2v10.3c0,2.4,1.9,4.3,4.3,4.3s4.3-1.9,4.3-4.3
		V14.9h2.2v27.2h-0.6c-1.2,0-2.4,0.7-2.9,1.8L9,47c-0.3,0.5-0.1,1.2,0.5,1.5c0.2,0.1,0.3,0.1,0.5,0.1h25.6c0.6,0,1.1-0.5,1.1-1.1
		c0-0.2,0-0.3-0.1-0.5l-1.6-3.1c-0.5-1.1-1.7-1.8-2.9-1.8h-0.6V14.9h2.2v10.3c0,2.4,1.9,4.3,4.3,4.3s4.3-1.9,4.3-4.3V14.9h2.2
		c0.6,0,1.1-0.5,1.1-1.1C45.6,13.2,45.1,12.7,44.5,12.7L44.5,12.7z"/>
	<path id="Fill-9_4_" class="st0" d="M-8.2-16.7c0-1.2,1-2.2,2.2-2.2h40.8c1.2,0,2.2,1,2.2,2.2v13c0,0.6,0.5,1.1,1.1,1.1
		c0.6,0,1.1-0.5,1.1-1.1v-13c0-2.4-1.9-4.3-4.3-4.3H-6.1c-2.4,0-4.3,1.9-4.3,4.3v15.2h2.2V-16.7z"/>
	<path id="Fill-11_2_" class="st0" d="M23.8-1.4V-9c0-1.8-1.5-3.3-3.3-3.3H9.7c-1.8,0-3.3,1.5-3.3,3.3v7.6h2.2V-9
		c0-0.6,0.5-1.1,1.1-1.1h10.9c0.6,0,1.1,0.5,1.1,1.1v7.6H23.8z"/>
</g>
</svg>
