<?xml version="1.0" encoding="utf-8"?>
<!-- Generator: Adobe Illustrator 21.0.0, SVG Export Plug-In . SVG Version: 6.00 Build 0)  -->
<svg version="1.1" id="Layer_1" xmlns="http://www.w3.org/2000/svg" xmlns:xlink="http://www.w3.org/1999/xlink" x="0px" y="0px"
	 viewBox="0 0 90 90" style="enable-background:new 0 0 90 90;" xml:space="preserve">
<style type="text/css">
	.st0{fill:#FEFEFE;}
</style>
<g id="surgery-icon">
	<g id="Group_1" transform="translate(-203.917 -1.269)">
		<path id="Fill_19" class="st0" d="M180.1,68.4c-0.6,0-1.2,0.5-1.2,1.1c0,0,0,0,0,0c0,0.6,0.5,1.1,1.2,1.1c0,0,0,0,0,0
			c0.6,0,1.2,0.5,1.2,1.1c0,0.6-0.5,1.1-1.2,1.1h-4.7c-0.6,0-1.1,0.5-1.2,1.1s0.5,1.1,1.1,1.2c0,0,0,0,0.1,0h4.7
			c1.9,0,3.5-1.5,3.5-3.4C183.5,69.8,182,68.3,180.1,68.4"/>
		<path id="Fill_15" class="st0" d="M170.5,72.6H166c-0.7,0-1.2,0.6-1.1,1.3c0,0.7,0.5,1.2,1.1,1.3h4.5c0.7,0,1.2-0.6,1.1-1.3
			C171.7,73.2,171.2,72.6,170.5,72.6"/>
		<path id="Fill_13" class="st0" d="M161.2,72.6h-4.5c-0.7,0-1.2,0.6-1.1,1.3c0,0.7,0.5,1.2,1.1,1.3h4.5c0.7,0,1.2-0.6,1.1-1.3
			C162.4,73.2,161.8,72.6,161.2,72.6"/>
		<path id="Fill_11" class="st0" d="M151.8,72.6h-4.5c-0.7,0-1.2,0.6-1.1,1.3c0,0.7,0.5,1.2,1.1,1.3h4.5c0.7,0,1.2-0.6,1.1-1.3
			C153,73.2,152.5,72.6,151.8,72.6"/>
		<path id="Fill_9" class="st0" d="M143.3,72.6h-4.5c-0.7,0-1.2,0.6-1.1,1.3c0,0.7,0.5,1.2,1.1,1.3h4.5c0.7,0,1.2-0.6,1.1-1.3
			C144.5,73.2,144,72.6,143.3,72.6"/>
		<path id="Fill_5" class="st0" d="M136.1,65c-1.1,0-2.3-0.1-3.4-0.2c-0.6-0.1-1.1-0.7-1-1.3c0-0.2,0.1-0.5,0.3-0.6l14.6-14.7
			c0.4-0.4,1.2-0.5,1.6,0c0,0,0,0,0,0l1.6-1.6l-0.8-0.8c-0.4-0.5-0.4-1.2,0-1.6l26-26.1c0.4-0.4,1.2-0.5,1.6,0c0,0,0,0,0,0l6.5,6.5
			c0.4,0.5,0.4,1.2,0,1.6l-26,26.1c-0.4,0.4-1.2,0.5-1.6,0c0,0,0,0,0,0l-0.8-0.8l-1.6,1.6c0.4,0.4,0.5,1.1,0.1,1.5
			c-1.1,1.3-2.2,2.5-3.4,3.7c-2.2,2.2-4.8,4.1-7.5,5.6C140.3,64.7,138.2,65.1,136.1,65z M147.5,50.6l-12.1,12.1c0.2,0,0.4,0,0.7,0
			c1.8,0.1,3.5-0.2,5.2-0.9c4.1-2.1,8-6.2,9.5-7.9l-0.7-0.7L147.5,50.6z M151.5,48.1l-1.6,1.6l1.6,1.6l1.6-1.6L151.5,48.1
			L151.5,48.1z M178.4,22.9L154,47.3l1.6,1.6l0.8,0.8l24.4-24.4L178.4,22.9z M175.9,20.4l-24.4,24.4l0.8,0.8l24.4-24.4L175.9,20.4z"
			/>
		<path id="Fill_7" class="st0" d="M134,72.6h-4.5c-0.7,0-1.2,0.6-1.1,1.3c0,0.7,0.5,1.2,1.1,1.3h4.5c0.7,0,1.2-0.6,1.1-1.3
			C135.1,73.2,134.6,72.6,134,72.6"/>
		<path id="Fill_21" class="st0" d="M129.4,67.5c-0.7,0-1.2,0.6-1.2,1.3c0,0.7,0.5,1.2,1.2,1.3h46.2c0.7,0,1.2-0.6,1.2-1.3
			c0-0.7-0.5-1.2-1.2-1.3H129.4z"/>
		<path id="Fill_17" class="st0" d="M124.6,75.1c-4.9,0-11.3-0.7-11.3-6.9c0-3.5,3-5.2,5.7-6.7c2.8-1.6,4.5-2.7,4.5-4.8
			c0-1.3-2-2.1-3.9-3l0,0c-2.4-1.1-5.2-2.3-5.2-5.1c0-2.8,2.8-4,5.2-5.1h0c1.9-0.8,3.9-1.7,3.9-3s-2-2.1-3.9-3
			c-2.5-1.1-5.2-2.3-5.2-5.1c0,0,0-0.1,0-0.1c0,0,0,0,0-0.1c-1.8-0.6-2.7-2.6-2.1-4.4c0.3-1,1.1-1.8,2.1-2.1
			c0.2-2.2,1.3-4.3,2.9-5.9c1.7-1.5,3.8-2.4,6.1-2.4c5,0,9.1,4.2,9.1,9.2c0,0.6-0.4,1.2-1.1,1.2c-0.6,0-1.2-0.4-1.2-1.1
			c0,0,0-0.1,0-0.1c0.1-3.8-2.9-6.9-6.6-6.9c-3.5-0.1-6.5,2.5-6.9,6c1.8,0.7,2.7,2.7,2,4.4c-0.4,0.9-1.1,1.7-2.1,2c0,0,0,0,0,0.1
			c0,0,0,0.1,0,0.1c0,1.3,2,2.1,3.9,3c2.4,1.1,5.2,2.3,5.2,5.1c0,2.8-2.8,4-5.2,5.1l0,0c-1.9,0.8-3.8,1.7-3.8,3c0,1.3,2,2.1,3.9,3
			c2.4,1.1,5.2,2.3,5.2,5.1c0,3.6-3,5.3-5.7,6.8c-2.8,1.6-4.5,2.7-4.5,4.7c0,1.5,0,4.6,9.1,4.6c0.6,0,1.1,0.5,1.1,1.1
			C125.8,74.6,125.2,75.1,124.6,75.1L124.6,75.1z M115.5,28c-0.6,0-1.2,0.5-1.2,1.1c0,0.6,0.5,1.2,1.1,1.2s1.2-0.5,1.2-1.1
			c0,0,0,0,0,0C116.7,28.5,116.2,28,115.5,28z"/>
	</g>
</g>
<g id="Group-2" transform="translate(38.042254, 32.500000)">
	<g id="Group">
		<path id="Fill-5" class="st0" d="M16.9,42.2c0,3.9-3.2,7.1-7.2,7.1h-29.4c-4,0-7.1-3.2-7.1-7.1v-31c0-2.7,1.3-5.3,3.4-7l8.7-6.8
			c1.9-1.5,3-3.7,3-6.1v-2.6H1.7v2.6c0,2.4,1.1,4.6,3,6.1l8.7,6.8c2.2,1.7,3.5,4.3,3.4,7V42.2z M-16.1-14.8v-6.8
			c0-0.2,0.2-0.4,0.4-0.4H5.7c0.2,0,0.4,0.2,0.4,0.4v6.7c0,0.2-0.2,0.4-0.4,0.4h-21.4C-15.9-14.4-16.1-14.6-16.1-14.8L-16.1-14.8z
			 M15.4,1.8L6.7-5C5.5-5.9,4.8-7.3,4.8-8.7v-2.6h0.8c1.9,0,3.5-1.5,3.5-3.5v-6.8c0-1.9-1.6-3.4-3.5-3.4h-21.4
			c-1.9,0-3.5,1.5-3.5,3.4v6.7c0,1.9,1.6,3.5,3.5,3.5h0.8v2.6c0,1.4-0.7,2.8-1.8,3.7l-8.7,6.8c-2.9,2.3-4.6,5.7-4.6,9.4v31
			c0,5.6,4.6,10.1,10.3,10.1H9.7c5.7,0,10.3-4.5,10.3-10.1v-31C20,7.5,18.3,4,15.4,1.8L15.4,1.8z"/>
		<path id="Fill-7" class="st0" d="M34.2,32.3c-2.9,0-5.3-2.4-5.3-5.3v-5.5h10.6v5.5C39.5,30,37.2,32.3,34.2,32.3L34.2,32.3z
			 M34.2,6.7c2.9,0,5.3,2.4,5.3,5.3c0,0,0,0,0,0v6.5H29V12C28.9,9.1,31.3,6.7,34.2,6.7L34.2,6.7z M34.2,3.6c-4.6,0-8.3,3.8-8.3,8.4
			v0v15c0.2,4.6,4,8.2,8.6,8.1c4.4-0.1,7.9-3.7,8.1-8.1V12C42.6,7.4,38.9,3.7,34.2,3.6L34.2,3.6z"/>
		<path id="Fill-9" class="st0" d="M-7,31.3h4v-6.1h6.3v-3.9H-3v-6.1h-4v6.1h-6.3v3.9H-7V31.3z M0,34.2h-10v-6.1h-6.3v-9.7h6.3v-6.1
			H0v6.1h6.3v9.7H0V34.2z"/>
	</g>
</g>
</svg>
