<?xml version="1.0" encoding="utf-8"?>
<!-- Generator: Adobe Illustrator 21.0.0, SVG Export Plug-In . SVG Version: 6.00 Build 0)  -->
<svg version="1.1" id="Layer_1" xmlns="http://www.w3.org/2000/svg" xmlns:xlink="http://www.w3.org/1999/xlink" x="0px" y="0px"
	 viewBox="0 0 90 90" style="enable-background:new 0 0 90 90;" xml:space="preserve">
<style type="text/css">
	.st0{fill:#FEFEFE;}
	.st1{filter:url(#Adobe_OpacityMaskFilter);}
	.st2{fill:#FFFFFF;}
	.st3{mask:url(#mask-2_1_);fill:#FEFEFE;}
	.st4{fill:none;stroke:#FFFFFF;}
	.st5{fill:none;stroke:#FFFFFF;stroke-miterlimit:10;}
</style>
<g id="Group-14" transform="translate(37.888168, 38.410848)">
	<path id="Fill-5_6_" class="st5" d="M-13.4,3.8c0-0.6,0.5-1.1,1.1-1.1H7.3c0.6,0,1.1,0.5,1.1,1.1v14.2c0,0.6-0.5,1.1-1.1,1.1H2.4
		v-3.8c0-2.7-2.2-4.9-4.9-4.9c-2.7,0-4.9,2.2-4.9,4.9V19h-4.9c-0.6,0-1.1-0.5-1.1-1.1V3.8z M0.2,19h-5.5v-3.8c0-1.5,1.2-2.7,2.7-2.7
		c1.5,0,2.7,1.2,2.7,2.7V19z M-12.3,21.2H7.3c1.8,0,3.3-1.5,3.3-3.3V3.8c0-1.8-1.5-3.3-3.3-3.3h-19.6c-1.8,0-3.3,1.5-3.3,3.3v14.2
		C-15.6,19.7-14.1,21.2-12.3,21.2L-12.3,21.2z"/>
	<path id="Fill-7_5_" class="st5" d="M14.9,17.4h15.3v5.5c0,0.6-0.5,1.1-1.1,1.1h-5.5v-2.2c0-1.2-1-2.2-2.2-2.2h-2.2
		c-1.2,0-2.2,1-2.2,2.2v2.2H16c-0.6,0-1.1-0.5-1.1-1.1V17.4z M23.7,15.2h2.2V13h-2.2V15.2z M14.9,6.5h15.3v8.7H28V13
		c0-1.2-1-2.2-2.2-2.2h-2.2c-1.2,0-2.2,1-2.2,2.2v2.2h-6.5V6.5z M19.3,4.3h2.2V2.1h-2.2V4.3z M14.9-1.1c0-0.6,0.5-1.1,1.1-1.1h13.1
		c0.6,0,1.1,0.5,1.1,1.1v5.5h-6.5V2.1c0-1.2-1-2.2-2.2-2.2h-2.2c-1.2,0-2.2,1-2.2,2.2v2.2h-2.2V-1.1z M19.3,23.9h2.2v-2.2h-2.2V23.9
		z M16,26.1h13.1c1.8,0,3.3-1.5,3.3-3.3v-24c0-1.8-1.5-3.3-3.3-3.3H16c-1.8,0-3.3,1.5-3.3,3.3v24C12.8,24.6,14.2,26.1,16,26.1
		L16,26.1z"/>
	<path id="Fill-9_3_" class="st5" d="M13.3-16.3c0,0.2-0.2,0.4-0.4,0.4h-2c-0.2,0-0.4,0.2-0.4,0.4v2c0,0.2-0.2,0.4-0.4,0.4H7.8
		c-0.2,0-0.4-0.2-0.4-0.4v-2c0-0.2-0.2-0.4-0.4-0.4H5c-0.2,0-0.4-0.2-0.4-0.4v-2.4c0-0.2,0.2-0.4,0.4-0.4h2c0.2,0,0.4-0.2,0.4-0.4
		v-2c0-0.2,0.2-0.4,0.4-0.4h2.4c0.2,0,0.4,0.2,0.4,0.4v2c0,0.2,0.2,0.4,0.4,0.4l0,0h2c0.2,0,0.4,0.2,0.4,0.4V-16.3z M12.9-21.3h-0.2
		v-0.2c0-1.4-1.2-2.6-2.6-2.6H7.8c-1.4,0-2.6,1.2-2.6,2.6v0.2H5c-1.4,0-2.6,1.2-2.6,2.6v2.4c0,1.4,1.2,2.6,2.6,2.6h0.2v0.2
		c0,1.4,1.2,2.6,2.6,2.6h2.4c1.4,0,2.6-1.2,2.6-2.6v-0.2h0.2c1.4,0,2.6-1.2,2.6-2.6v-2.4C15.5-20.1,14.3-21.3,12.9-21.3L12.9-21.3z"
		/>
	<path id="Fill-11_1_" class="st5" d="M-24.3,38.1c0-0.9,0.7-1.6,1.6-1.6h62.1c0.9,0,1.6,0.7,1.6,1.6v1.1h-65.4V38.1z M-20.5,33.2
		c0-0.6,0.5-1.6,1.1-1.6h55.6c0.6,0,1.1,1,1.1,1.6v1.1h-57.8V33.2z M-17.8,29.4h52.3v-36h-52.3V29.4z M-23.2-8.8
		c-0.6,0-1.1-0.5-1.1-1.1v-15.3c0-0.6,0.5-1.1,1.1-1.1H40c0.6,0,1.1,0.5,1.1,1.1v15.3c0,0.6-0.5,1.1-1.1,1.1H-23.2z M41.1,41.4
		c1.2,0,2.2-1,2.2-2.2v-1.1c0-2.1-1.7-3.8-3.8-3.8v-1.1c0-1.4-1-3.4-2.7-3.8c0,0,0,0,0-0.1v-36H40c1.8,0,3.3-1.5,3.3-3.3v-15.3
		c0-1.8-1.5-3.3-3.3-3.3h-63.2c-1.8,0-3.3,1.5-3.3,3.3v15.3c0,1.8,1.5,3.3,3.3,3.3h3.3v36c0,0,0,0,0,0.1c-1.8,0.3-2.7,2.3-2.7,3.8
		v1.1c-2.1,0-3.8,1.7-3.8,3.8v1.1c0,1.2,1,2.2,2.2,2.2H41.1z"/>
</g>
</svg>
