<?xml version="1.0" encoding="utf-8"?>
<!-- Generator: Adobe Illustrator 21.0.0, SVG Export Plug-In . SVG Version: 6.00 Build 0)  -->
<svg version="1.1" id="Layer_1" xmlns="http://www.w3.org/2000/svg" xmlns:xlink="http://www.w3.org/1999/xlink" x="0px" y="0px"
	 viewBox="0 0 90 90" style="enable-background:new 0 0 90 90;" xml:space="preserve">
<style type="text/css">
	.st0{fill:#FEFEFE;}
	.st1{filter:url(#Adobe_OpacityMaskFilter);}
	.st2{fill:#FFFFFF;}
	.st3{mask:url(#mask-2_1_);fill:#FEFEFE;}
	.st4{fill:none;stroke:#FFFFFF;}
</style>
<path id="Fill-7_4_" class="st0" d="M16.1,16.6l0.3,0.1c1,0.5,2.1,1,3.1,1.5c7.1,3.3,15.6,7.1,24.7,9.5c2,0.5,3.8,0.9,5.6,1.1
	c0.3,0,0.6,0.1,0.9,0.1c-0.5-0.1-1.1-0.3-1.7-0.4C38.9,26.2,28.5,22.5,16.1,16.6L16.1,16.6z M13.7,33.2c5.8,0,11.8,1.5,18.3,4.4
	c2.5,1.1,5.1,2.8,6,5.9c-0.7-3.1-3.3-4.8-6.4-6.4c-5.5-2.9-11.9-4.3-19.4-4.2c-0.6,0-1.2-0.1-1.9-0.1c-0.1,0.2-0.1,0.5-0.2,0.7
	c0.4-0.1,0.9-0.1,1.3-0.2C12.2,33.2,13,33.2,13.7,33.2L13.7,33.2z M41.4,51.5c0.7,0.2,1.5,0.3,2.3,0.2c1.2-0.1,2.3-0.2,3.5-0.2
	c0.3,0,0.5,0,0.8,0c-0.5-0.2-1-0.3-1.4-0.3c-0.5,0-1.1,0.1-1.7,0.2c-0.5,0.1-1,0.3-1.6,0.3C42.6,51.6,42,51.6,41.4,51.5L41.4,51.5z
	 M48.5,54.4c-0.1,0.1-0.2,0.2-0.3,0.3c0.1,0,0.1-0.1,0.1-0.1C48.4,54.5,48.5,54.5,48.5,54.4L48.5,54.4z M67.6,50.9
	c1.1,1.3,2.3,2.4,3.7,3.5c0.5,0.4,0.7,1,0.9,1.5c0.1,0.2,0.2,0.4,0.2,0.6l0.1,0.2c0.1-1.3-0.5-2.3-2-3.3
	C69.6,52.6,68.6,51.8,67.6,50.9L67.6,50.9z M46.4,57.4C46.4,57.5,46.3,57.5,46.4,57.4c-0.3,1-0.3,1.9-0.4,2.9c0,0.2,0,0.4,0,0.7
	c0.3-1,0.8-1.9,1.6-2.7l-0.9-0.5L46.4,57.4z M68.8,58c0.7,0.1,1.7,0.4,2.4,1.1c0.8,0.9,1.5,1.8,2.2,2.7c-0.2-0.4-0.3-0.9-0.5-1.3
	c-0.1-0.1-0.1-0.3-0.2-0.5c-0.3-0.7-0.6-1.5-0.4-2.2c0.1-0.2,0.1-0.4,0.2-0.7l-0.4,0.1c-0.2,0.1-0.4,0.1-0.6,0.2
	c-0.5,0.2-1,0.4-1.6,0.4L68.8,58z M45.3,66.4c0,0,0,0.1,0,0.1c0,0.2,0,0.5,0,0.7L45.3,66.4z M47,71c0.3,0.2,0.6,0.4,0.9,0.6
	C47.5,71.4,47.2,71.2,47,71L47,71z M57.8,75.1c5.1,1.4,10,2.1,15,2.2c2.1,0,3.5-0.4,4.1-1.2c0.4-0.5,0.5-1.2,0.5-2.1
	c-0.1,0.8-0.3,1.4-0.8,2C76,76.7,74.9,77,73.5,77C67.8,76.9,62.6,76.3,57.8,75.1L57.8,75.1z M73,78.5c-0.1,0-0.2,0-0.2,0
	C64.7,78.4,56.5,76.6,48,73c-2.8-1.2-4.1-3.4-4-6.5c0.1-1,0.2-2.1,0.3-3c0.1-0.6,0.2-1.1,0.2-1.7c0.1-0.5,0.1-1,0.1-1.5
	c0.1-1,0.1-2.1,0.4-3.1c0.1-0.3,0.2-0.6,0.3-0.8l-0.2-0.2l0.4-0.2c0.2-0.3,0.5-0.6,0.7-0.9c0.2-0.2,0.3-0.4,0.5-0.6
	c0.4-0.5,0.8-1,1.2-1.4l0.2-0.3c-0.3,0-0.7,0-1,0c-1.1,0-2.3,0.1-3.4,0.2c-2.1,0.2-4.1-0.4-5.5-1.7c-1.1-1.1-1.7-2.7-1.5-4.3
	c0.5-4.7-2.5-6.8-5.5-8.1c-7.2-3.3-13.7-4.7-19.9-4.2c-0.8,0.1-1.5,0.2-2.1,0.4l-1.2,0.5l0.5-1.8c0.2-0.6,0.3-1.2,0.5-1.7l0.2-0.5
	l0.9,0.1c0.7,0.1,1.2,0.1,1.8,0.1c7.7-0.1,14.3,1.4,20,4.4c4.1,2.2,8,4.8,7.1,10.9c-0.2,1,0,1.8,0.6,2.4c0.7,0.7,1.8,1.1,3.3,1
	c0.4,0,0.9-0.1,1.4-0.3c0.7-0.2,1.4-0.3,2.2-0.3c0.9,0.1,1.8,0.4,2.6,0.8c0.3,0.1,0.7,0.3,1,0.4l0.6,0.2l-0.2,0.6
	c-0.1,0.3-0.2,0.7-0.3,1c-0.3,0.9-0.5,1.8-1.1,2.5c-0.5,0.6-1.2,0.9-2,1.2c0,0-0.1,0-0.1,0l0.2,0.3l2.2,1.2l-0.7,0.6
	c-2.4,2-2.5,4.8-2.5,7.6l0,1c0,1.6,0.7,2.6,2.4,3.4c7.2,3.3,15.2,4.9,24.6,5.1c0.6,0,1.6-0.1,2.1-0.7c0.5-0.6,0.5-1.6,0.4-2.2
	c-0.8-5.3-2.7-9.5-5.8-12.8c-0.5-0.5-1.4-0.8-2.2-0.8c-2.8-0.2-5.6-0.4-8.3-0.6l-3-0.2l0-1.3c3.7-0.4,7.5-0.4,11.1-0.4l2.1,0
	c0.3,0,0.7-0.2,1.1-0.3c0,0,0,0,0,0c0,0,0,0,0-0.1c-0.1-0.4-0.3-0.8-0.5-0.9c-4.6-3.2-7.3-7.7-8.4-14c-1.1-6.4-5.9-10.7-12.6-11.4
	c-1.8-0.2-3.7-0.5-5.8-1.1c-9.2-2.4-17.8-6.2-24.9-9.5c-1-0.5-2.1-1-3.1-1.5l-1.4-0.6l1-2.4l0.6,0.3c12.6,6,23.2,9.8,33.2,12
	c9.5,2.1,14.6,7.3,16,16.4c0.5,3.5,2.4,6.1,6.1,8.6c1.6,1.1,3.4,2.8,2.2,6c-0.1,0.3,0.2,0.9,0.3,1.3c0.1,0.2,0.1,0.3,0.2,0.5
	c0.5,1.3,0.9,2.5,1.4,3.8c1,2.5,2,5.2,2.8,7.9c0.7,2.3,0.5,3.9-0.3,5.1C77.1,77.9,75.5,78.5,73,78.5L73,78.5z"/>
</svg>
