<?xml version="1.0" encoding="utf-8"?>
<!-- Generator: Adobe Illustrator 21.0.0, SVG Export Plug-In . SVG Version: 6.00 Build 0)  -->
<svg version="1.1" id="Layer_1" xmlns="http://www.w3.org/2000/svg" xmlns:xlink="http://www.w3.org/1999/xlink" x="0px" y="0px"
	 viewBox="0 0 90 90" style="enable-background:new 0 0 90 90;" xml:space="preserve">
<style type="text/css">
	.st0{fill:#FEFEFE;}
	.st1{filter:url(#Adobe_OpacityMaskFilter);}
	.st2{fill:#FFFFFF;}
	.st3{mask:url(#mask-2_1_);fill:#FEFEFE;}
</style>
<defs>
	<filter id="Adobe_OpacityMaskFilter" filterUnits="userSpaceOnUse" x="10" y="15" width="71.5" height="62.1">
		<feColorMatrix  type="matrix" values="1 0 0 0 0  0 1 0 0 0  0 0 1 0 0  0 0 0 1 0"/>
	</filter>
</defs>
<mask maskUnits="userSpaceOnUse" x="10" y="15" width="71.5" height="62.1" id="mask-2_1_">
	<g class="st1">
		<polygon id="path-1_1_" class="st2" points="-23.9,115.7 113.5,115.7 113.5,-21.7 -23.9,-21.7 		"/>
	</g>
</mask>
<path id="Fill-5_1_" class="st3" d="M21.9,36.5h9.5v-2.4h-9.5V36.5z M33.8,30.7c0-0.7,0.5-1.2,1.2-1.2c0.2,0,0.3,0,0.5,0.1l12.2,5.7
	L35.5,41c-0.6,0.3-1.3,0-1.6-0.6c-0.1-0.2-0.1-0.3-0.1-0.5V30.7z M48.7,33.1L48.7,33.1L48.3,33c1.3-7.1,8.1-11.9,15.2-10.6
	c7.1,1.3,11.9,8.1,10.6,15.3S66,49.5,58.9,48.2c-5.4-1-9.6-5.2-10.6-10.6l0.3-0.2c1.2-0.6,1.7-2,1.2-3.2
	C49.6,33.8,49.2,33.4,48.7,33.1L48.7,33.1z M61.2,17.4c9.9,0,17.9,8,17.9,17.9c0,9.9-8,17.9-17.9,17.9c-8.2,0-15.3-5.6-17.3-13.5
	l2.2-1C48,47,56.3,52.3,64.6,50.5c8.3-1.9,13.6-10.2,11.8-18.5c-1.9-8.4-10.1-13.6-18.5-11.8c-5.9,1.3-10.5,5.9-11.8,11.8l-2.2-1
	C45.9,23,53.1,17.4,61.2,17.4L61.2,17.4z M33.1,42.9c1,0.7,2.3,0.7,3.4,0.2l5.2-2.4c3,10.8,14.2,17.1,24.9,14.1
	c10.8-3,17.1-14.2,14.1-25c-3-10.8-14.2-17.1-24.9-14.1C49,17.6,43.6,23,41.7,29.9l-5.2-2.4c-1.8-0.8-3.9-0.1-4.8,1.7
	c-0.2,0.5-0.3,1-0.3,1.5v1H20.7c-0.7,0-1.2,0.5-1.2,1.2v1.2h-2.4c-3.9,0-7.1,3.2-7.1,7.2c0,4,3.2,7.2,7.1,7.2h15.5
	c2,0,3.6,1.6,3.6,3.6c0,2-1.6,3.6-3.6,3.6H16c-3.3,0-6,2.7-6,6c0,3.3,2.7,6,6,6h59.6c2,0,3.6,1.6,3.6,3.6c0,2-1.6,3.6-3.6,3.6h-31
	v2.4h31c3.3,0,6-2.7,6-6s-2.7-6-6-6H16c-2,0-3.6-1.6-3.6-3.6c0-2,1.6-3.6,3.6-3.6h16.7c3.3,0,6-2.7,6-6c0-3.3-2.7-6-6-6H17.1
	c-2.6,0-4.8-2.1-4.8-4.8c0-2.6,2.1-4.8,4.8-4.8h2.4v1.2c0,0.7,0.5,1.2,1.2,1.2h10.7v1C31.4,41.1,32.1,42.3,33.1,42.9L33.1,42.9z"/>
</svg>
