<?xml version="1.0" encoding="utf-8"?>
<!-- Generator: Adobe Illustrator 21.0.0, SVG Export Plug-In . SVG Version: 6.00 Build 0)  -->
<svg version="1.1" id="Layer_1" xmlns="http://www.w3.org/2000/svg" xmlns:xlink="http://www.w3.org/1999/xlink" x="0px" y="0px"
	 viewBox="0 0 90 90" style="enable-background:new 0 0 90 90;" xml:space="preserve">
<style type="text/css">
	.st0{fill:#FEFEFE;}
	.st1{filter:url(#Adobe_OpacityMaskFilter);}
	.st2{fill:#FFFFFF;}
	.st3{mask:url(#mask-2_1_);fill:#FEFEFE;}
	.st4{fill:none;stroke:#FFFFFF;}
</style>
<g id="Page-1">
	<g id="Search" transform="translate(-876.000000, -2350.000000)">
		<g id="Group-23" transform="translate(878.000000, 2350.000000)">
			<g id="Group-5" transform="translate(38.585714, 34.979167)">
				<g id="Group-4">
					<path id="Fill-5_2_" class="st4" d="M-3,35.3v-23h-21.4V10c0-2.5,2.1-4.6,4.7-4.6h19C2,5.4,4.1,7.5,4.1,10v5.8h-4.7v24.2H-22
						c-1.3,0-2.4-1-2.4-2.3v-2.3H-3z M-24.4,33h19V14.6h-19V33z M-16,3.1h11.9V0.8H-16V3.1z M-20.8-1.5C-21.4-1.5-22-2-22-2.6v-1.2
						c0-0.6,0.5-1.1,1.2-1.1H0.6c0.7,0,1.2,0.5,1.2,1.1v1.2c0,0.6-0.5,1.1-1.2,1.1H-20.8z M18.4,34.2c0-0.6,0.5-1.2,1.2-1.2
						c0.7,0,1.2,0.5,1.2,1.2c0,0.6-0.5,1.1-1.2,1.1C18.9,35.3,18.4,34.8,18.4,34.2L18.4,34.2z M13.6,2c0-0.6,0.5-1.1,1.2-1.1h19
						C34.4,0.8,35,1.4,35,2v36.8c0,0.6-0.5,1.1-1.2,1.1H18.4v-2.5c0.4,0.1,0.8,0.2,1.2,0.2c2,0,3.6-1.5,3.6-3.5
						c0-1.9-1.6-3.5-3.6-3.5c-0.4,0-0.8,0.1-1.2,0.2v-2.7c0.4,0.1,0.8,0.2,1.2,0.2c2,0,3.6-1.5,3.6-3.5c0-1.9-1.6-3.5-3.6-3.5
						c-0.4,0-0.8,0.1-1.2,0.2V19c0.4,0.1,0.8,0.2,1.2,0.2c2,0,3.6-1.5,3.6-3.5c0-1.9-1.6-3.5-3.6-3.5c-2,0-3.6,1.5-3.6,3.5h-2.4V2z
						 M1.7,22.7H16v-4.6H1.7V22.7z M19.5,23.8c0.7,0,1.2,0.5,1.2,1.1c0,0.6-0.5,1.2-1.2,1.2c-0.7,0-1.2-0.5-1.2-1.2
						C18.4,24.4,18.9,23.8,19.5,23.8L19.5,23.8z M19.5,14.6c0.7,0,1.2,0.5,1.2,1.2c0,0.6-0.5,1.1-1.2,1.1c-0.7,0-1.2-0.5-1.2-1.1
						C18.4,15.2,18.9,14.6,19.5,14.6L19.5,14.6z M1.7,35.3h8.3v-5.8H1.7V35.3z M16,39.9H1.7v-2.3h10.7V27.3H1.7V25H16V39.9z
						 M-22,42.2h55.8c2,0,3.6-1.5,3.6-3.5V2c0-1.9-1.6-3.5-3.6-3.5h-19c-2,0-3.6,1.5-3.6,3.5v13.8H6.5V10c0-3.8-3.2-6.9-7.1-6.9
						h-1.2V0.8h2.4c2,0,3.6-1.5,3.6-3.5v-1.2c0-1.9-1.6-3.5-3.6-3.5h-21.4c-2,0-3.6,1.5-3.6,3.5v1.2c0,1.9,1.6,3.5,3.6,3.5h2.4v2.3
						h-1.2c-3.9,0-7.1,3.1-7.1,6.9v27.6C-26.7,40.2-24.6,42.2-22,42.2L-22,42.2z"/>
					<path id="Fill-9_1_" class="st4" d="M-17.2-23.9c1-0.5,2.2-0.4,3.1,0.3l-4.7,2.3C-18.8-22.3-18.2-23.4-17.2-23.9L-17.2-23.9z
						 M-14.6-18.9c-1,0.5-2.2,0.4-3.1-0.3l4.7-2.4C-12.9-20.5-13.5-19.4-14.6-18.9L-14.6-18.9z M-20.5-19.1c1.3,2.5,4.4,3.4,7,2.2
						c2.5-1.3,3.5-4.3,2.2-6.8c-1.3-2.5-4.4-3.4-7-2.2c-1.2,0.6-2.1,1.7-2.6,2.9C-21.2-21.7-21.1-20.3-20.5-19.1L-20.5-19.1z"/>
					<path id="Fill-21" class="st4" d="M-4.9-15.8l2.7-2.6l3,3l-2.7,2.6c-0.8,0.8-2.2,0.8-3,0C-5.7-13.7-5.7-15-4.9-15.8L-4.9-15.8z
						 M2.2-22.7c0.4-0.4,0.9-0.6,1.5-0.6c1.2,0,2.2,0.9,2.2,2.1c0,0.5-0.2,1.1-0.6,1.5l-2.7,2.6l-3-3L2.2-22.7z M-3.4-10
						c1.2,0,2.3-0.5,3.2-1.3l7.1-6.9c1.7-1.7,1.7-4.5-0.1-6.2c-1.7-1.6-4.5-1.6-6.3,0l-7.1,6.9c-1.8,1.7-1.7,4.5,0,6.2
						C-5.7-10.4-4.6-10-3.4-10L-3.4-10z"/>
				</g>
			</g>
			<path id="Fill-7_1_" class="st4" d="M28.3,58.2v2.3h-3.5v3.4h-2.4v-3.4h-3.5v-2.3h3.5v-3.4h2.4v3.4H28.3z M27.2,52.5h-7.1v3.4
				h-3.5v6.9h3.5v3.4h7.1v-3.4h3.5v-6.9h-3.5V52.5z"/>
			<path id="Fill-11" class="st4" d="M67.7,70.2c-0.1,0.3-0.3,0.6-0.6,0.8c-0.6,0.4-1.4,0.2-1.7-0.4c-0.4-0.6-0.2-1.3,0.4-1.7
				c0.2-0.1,0.4-0.2,0.7-0.2c0.1,0,0.2,0,0.3,0C67.5,68.9,67.9,69.5,67.7,70.2z M67.4,66.3c-2-0.5-4.1,0.7-4.5,2.7
				c-0.5,2,0.8,3.9,2.8,4.4c0.3,0.1,0.6,0.1,0.9,0.1c1.7,0,3.3-1.2,3.7-2.8C70.6,68.8,69.4,66.8,67.4,66.3L67.4,66.3z"/>
			<path id="Fill-13" class="st4" d="M58,40.3c0.7,0,1.3,0.5,1.3,1.2c0,0.7-0.6,1.2-1.3,1.2c-0.7,0-1.3-0.5-1.3-1.2
				C56.8,40.8,57.3,40.3,58,40.3 M58,45.2c2.1,0,3.8-1.6,3.8-3.7c0-2-1.7-3.7-3.8-3.7s-3.8,1.6-3.8,3.7C54.3,43.5,55.9,45.2,58,45.2
				"/>
			<path id="Fill-15" class="st4" d="M66.5,40.3c0.7,0,1.3,0.5,1.3,1.2c0,0.7-0.6,1.2-1.3,1.2c-0.7,0-1.3-0.5-1.3-1.2
				C65.2,40.8,65.8,40.3,66.5,40.3 M66.5,45.2c2.1,0,3.8-1.6,3.8-3.7c0-2-1.7-3.7-3.8-3.7s-3.8,1.6-3.8,3.7
				C62.7,43.5,64.4,45.2,66.5,45.2"/>
			<path id="Fill-17" class="st4" d="M66.5,49.4c0.7,0,1.3,0.5,1.3,1.2c0,0.7-0.6,1.2-1.3,1.2c-0.7,0-1.3-0.5-1.3-1.2
				C65.2,50,65.8,49.4,66.5,49.4 M66.5,54.3c2.1,0,3.8-1.6,3.8-3.7c0-2-1.7-3.7-3.8-3.7s-3.8,1.6-3.8,3.7
				C62.7,52.7,64.4,54.3,66.5,54.3"/>
			<path id="Fill-19" class="st4" d="M66.5,58.6c0.7,0,1.3,0.5,1.3,1.2c0,0.7-0.6,1.2-1.3,1.2c-0.7,0-1.3-0.5-1.3-1.2
				C65.2,59.1,65.8,58.6,66.5,58.6 M66.5,63.5c2.1,0,3.8-1.6,3.8-3.7c0-2-1.7-3.7-3.8-3.7s-3.8,1.6-3.8,3.7
				C62.7,61.8,64.4,63.5,66.5,63.5"/>
		</g>
	</g>
</g>
</svg>
