<?xml version="1.0" encoding="utf-8"?>
<!-- Generator: Adobe Illustrator 21.0.0, SVG Export Plug-In . SVG Version: 6.00 Build 0)  -->
<svg version="1.1" id="Layer_1" xmlns="http://www.w3.org/2000/svg" xmlns:xlink="http://www.w3.org/1999/xlink" x="0px" y="0px"
	 viewBox="0 0 90 90" style="enable-background:new 0 0 90 90;" xml:space="preserve">
<style type="text/css">
	.st0{fill:#FEFEFE;}
</style>
<g id="surgery-icon">
	<g id="Group_1" transform="translate(-203.917 -1.269)">
		<path id="Fill_19" class="st0" d="M279.5,69c-0.6,0-1.2,0.5-1.2,1.1c0,0,0,0,0,0c0,0.6,0.5,1.1,1.2,1.1c0,0,0,0,0,0
			c0.6,0,1.2,0.5,1.2,1.1c0,0.6-0.5,1.1-1.2,1.1h-4.7c-0.6,0-1.1,0.5-1.2,1.1c0,0.6,0.5,1.1,1.1,1.2c0,0,0,0,0.1,0h4.7
			c1.9,0,3.5-1.5,3.5-3.4C282.9,70.5,281.4,68.9,279.5,69"/>
		<path id="Fill_15" class="st0" d="M269.9,73.2h-4.5c-0.7,0-1.2,0.6-1.1,1.3c0,0.7,0.5,1.2,1.1,1.3h4.5c0.7,0,1.2-0.6,1.1-1.3
			C271.1,73.8,270.6,73.2,269.9,73.2"/>
		<path id="Fill_13" class="st0" d="M260.6,73.2H256c-0.7,0-1.2,0.6-1.1,1.3c0,0.7,0.5,1.2,1.1,1.3h4.5c0.7,0,1.2-0.6,1.1-1.3
			C261.7,73.8,261.2,73.2,260.6,73.2"/>
		<path id="Fill_11" class="st0" d="M251.2,73.2h-4.5c-0.7,0-1.2,0.6-1.1,1.3c0,0.7,0.5,1.2,1.1,1.3h4.5c0.7,0,1.2-0.6,1.1-1.3
			C252.4,73.8,251.9,73.2,251.2,73.2"/>
		<path id="Fill_9" class="st0" d="M242.7,73.2h-4.5c-0.7,0-1.2,0.6-1.1,1.3c0,0.7,0.5,1.2,1.1,1.3h4.5c0.7,0,1.2-0.6,1.1-1.3
			C243.9,73.8,243.4,73.2,242.7,73.2"/>
		<path id="Fill_5" class="st0" d="M235.5,65.6c-1.1,0-2.3-0.1-3.4-0.2c-0.6-0.1-1.1-0.7-1-1.3c0-0.2,0.1-0.5,0.3-0.6L246,48.8
			c0.4-0.4,1.2-0.5,1.6,0c0,0,0,0,0,0l1.6-1.6l-0.8-0.8c-0.4-0.5-0.4-1.2,0-1.6l26-26.1c0.4-0.4,1.2-0.5,1.6,0c0,0,0,0,0,0l6.5,6.5
			c0.4,0.5,0.4,1.2,0,1.6l-26,26.1c-0.4,0.4-1.2,0.5-1.6,0c0,0,0,0,0,0l-0.8-0.8l-1.6,1.6c0.4,0.4,0.5,1.1,0.1,1.5
			c-1.1,1.3-2.2,2.5-3.4,3.7c-2.2,2.2-4.8,4.1-7.5,5.6C239.7,65.3,237.6,65.7,235.5,65.6z M246.8,51.2l-12.1,12.1c0.2,0,0.4,0,0.7,0
			c1.8,0.1,3.5-0.2,5.2-0.9c4.1-2.1,8-6.2,9.5-7.9l-0.7-0.7L246.8,51.2z M250.9,48.8l-1.6,1.6l1.6,1.6l1.6-1.6L250.9,48.8
			L250.9,48.8z M277.7,23.5L253.4,48l1.6,1.6l0.8,0.8L280.2,26L277.7,23.5z M275.3,21.1l-24.4,24.4l0.8,0.8l24.4-24.4L275.3,21.1z"
			/>
		<path id="Fill_7" class="st0" d="M233.3,73.2h-4.5c-0.7,0-1.2,0.6-1.1,1.3c0,0.7,0.5,1.2,1.1,1.3h4.5c0.7,0,1.2-0.6,1.1-1.3
			C234.5,73.8,234,73.2,233.3,73.2"/>
		<path id="Fill_21" class="st0" d="M228.8,68.1c-0.7,0-1.2,0.6-1.2,1.3c0,0.7,0.5,1.2,1.2,1.3H275c0.7,0,1.2-0.6,1.2-1.3
			c0-0.7-0.5-1.2-1.2-1.3H228.8z"/>
		<path id="Fill_17" class="st0" d="M224,75.7c-4.9,0-11.3-0.7-11.3-6.9c0-3.5,3-5.2,5.7-6.7c2.8-1.6,4.5-2.7,4.5-4.8
			c0-1.3-2-2.1-3.9-3l0,0c-2.4-1.1-5.2-2.3-5.2-5.1s2.8-4,5.2-5.1h0c1.9-0.8,3.9-1.7,3.9-3s-2-2.1-3.9-3c-2.5-1.1-5.2-2.3-5.2-5.1
			c0,0,0-0.1,0-0.1c0,0,0,0,0-0.1c-1.8-0.6-2.7-2.6-2.1-4.4c0.3-1,1.1-1.8,2.1-2.1c0.2-2.2,1.3-4.3,2.9-5.9c1.7-1.5,3.8-2.4,6.1-2.4
			c5,0,9.1,4.2,9.1,9.2c0,0.6-0.4,1.2-1.1,1.2c-0.6,0-1.2-0.4-1.2-1.1c0,0,0-0.1,0-0.1c0.1-3.8-2.9-6.9-6.6-6.9
			c-3.5-0.1-6.5,2.5-6.9,6c1.8,0.7,2.7,2.7,2,4.4c-0.4,0.9-1.1,1.7-2.1,2c0,0,0,0,0,0.1c0,0,0,0.1,0,0.1c0,1.3,2,2.1,3.9,3
			c2.4,1.1,5.2,2.3,5.2,5.1c0,2.8-2.8,4-5.2,5.1l0,0c-1.9,0.8-3.8,1.7-3.8,3c0,1.3,2,2.1,3.9,3c2.4,1.1,5.2,2.3,5.2,5.1
			c0,3.6-3,5.3-5.7,6.8c-2.8,1.6-4.5,2.7-4.5,4.7c0,1.5,0,4.6,9.1,4.6c0.6,0,1.1,0.5,1.1,1.1S224.6,75.7,224,75.7L224,75.7z
			 M214.9,28.6c-0.6,0-1.2,0.5-1.2,1.1c0,0.6,0.5,1.2,1.1,1.2c0.6,0,1.2-0.5,1.2-1.1c0,0,0,0,0,0C216,29.2,215.5,28.6,214.9,28.6z"
			/>
	</g>
</g>
</svg>
